<svg xmlns="http://www.w3.org/2000/svg" width="220" height="72" viewBox="0 0 220 72" fill="none">
  <rect width="220" height="72" rx="12" fill="#FFFFFF" />
  <svg x="76" y="10" width="68" height="52" viewBox="0 0 70 82" preserveAspectRatio="xMidYMid meet" fill="none">
    <path d="M44 6c-6.8 0-12.9 3.7-16.1 9.6-2.8-1.7-5.9-2.6-9.2-2.6C8.4 13 0 21.4 0 31.7c0 6.8 3.7 12.9 9.6 16.1-1.7 2.8-2.6 5.9-2.6 9.2C7 67.3 15.4 75.7 25.7 75.7c6.8 0 12.9-3.7 16.1-9.6 2.8 1.7 5.9 2.6 9.2 2.6 10.3 0 18.7-8.4 18.7-18.7 0-6.8-3.7-12.9-9.6-16.1 1.7-2.8 2.6-5.9 2.6-9.2C62.7 14.4 54.3 6 44 6Z" stroke="#111827" stroke-width="4" />
    <path d="M25.7 18.5 44 29l0 21.3" stroke="#111827" stroke-width="4" stroke-linecap="round" stroke-linejoin="round" />
    <path d="M18.7 31.7h25.3" stroke="#111827" stroke-width="4" stroke-linecap="round" />
    <path d="M25.7 44.9 7.5 34.4V13.1" stroke="#111827" stroke-width="4" stroke-linecap="round" stroke-linejoin="round" />
    <path d="M50.9 31.7H25.6" stroke="#111827" stroke-width="4" stroke-linecap="round" />
    <path d="M44 18.5 62.2 29v21.3" stroke="#111827" stroke-width="4" stroke-linecap="round" stroke-linejoin="round" />
  </svg>
</svg>
